<svg data-v-423bf9ae="" xmlns="http://www.w3.org/2000/svg" viewBox="0 0 322.89085033427364 163" class="iconAbove"><!----><!----><!----><g data-v-423bf9ae="" id="981ae555-3599-433c-9921-3f2b17920178" fill="white" transform="matrix(5.899704933166504,0,0,5.899704933166504,1.651931881904602,84.17994689941406)"><path d="M8.34 10.82L6.29 5.05C5.99 4.23 6.27 3.65 6.54 3.42L6.54 3.39L2.83 3.39L2.83 3.42C3.09 3.64 3.36 4.23 3.08 5.05L1.08 10.82C0.70 11.90 0.10 12.75-0.28 13.09L-0.28 13.12L2.66 13.12L2.66 13.09C2.46 12.91 2.32 12.33 2.69 11.37L2.81 11.03L6.43 11.03L6.55 11.37C6.90 12.33 6.79 12.91 6.55 13.09L6.55 13.12L9.72 13.12L9.72 13.09C9.32 12.77 8.72 11.90 8.34 10.82ZM4.58 5.25L4.63 5.25C4.77 6.33 5.12 7.27 5.45 8.18L5.96 9.66L3.28 9.66L3.79 8.18C4.12 7.27 4.45 6.33 4.58 5.25ZM14.11 3.39L10.29 3.39L10.29 3.42C10.65 3.65 11.05 4.33 11.05 5.43L11.05 11.02C11.05 12.17 10.64 12.85 10.29 13.09L10.29 13.12L13.72 13.12L13.72 13.09C13.36 12.85 12.96 12.18 12.96 11.07L12.96 9.91L14.11 9.91C16.34 9.91 17.64 8.83 17.64 6.55C17.64 4.54 16.34 3.39 14.11 3.39ZM13.79 8.53L12.96 8.51L12.96 4.77L13.79 4.77C15.06 4.77 15.65 5.36 15.65 6.65C15.65 7.85 15.08 8.54 13.79 8.53ZM18.89 13.12L22.33 13.12L22.33 13.09C21.97 12.85 21.57 12.18 21.57 11.02L21.57 5.49C21.57 4.34 21.98 3.65 22.33 3.42L22.33 3.39L18.89 3.39L18.89 3.42C19.25 3.65 19.64 4.33 19.64 5.49L19.64 11.02C19.64 12.17 19.24 12.85 18.89 13.09ZM32.20 13.33C33.38 13.33 34.47 13.05 35.18 12.80L35.52 10.29L35.49 10.28C34.76 11.23 33.85 11.84 32.34 11.84C30.39 11.84 29.36 10.32 29.36 8.18C29.36 6.02 30.55 4.66 32.52 4.66C33.60 4.66 34.62 5.08 35.20 5.98L35.22 5.96L35 3.54C34.19 3.30 33.43 3.19 32.54 3.19C29.34 3.19 27.27 5.17 27.27 8.32C27.27 11.19 29.18 13.33 32.20 13.33ZM40.99 13.36C43.69 13.36 45.01 11.96 45.01 9.11L45.01 5.49C45.01 4.33 45.40 3.65 45.77 3.42L45.77 3.39L42.41 3.39L42.41 3.42C42.71 3.65 43.12 4.34 43.12 5.49L43.12 9.27C43.12 11.06 42.50 11.89 41.15 11.89C39.62 11.89 39.05 11.17 39.05 9.27L39.05 5.49C39.05 4.33 39.44 3.65 39.76 3.42L39.76 3.39L36.36 3.39L36.36 3.42C36.71 3.65 37.11 4.34 37.11 5.49L37.11 9.11C37.11 11.97 38.50 13.36 40.99 13.36ZM50.92 3.39L47.10 3.39L47.10 3.42C47.46 3.65 47.85 4.33 47.85 5.43L47.85 11.02C47.85 12.17 47.45 12.85 47.10 13.09L47.10 13.12L50.53 13.12L50.53 13.09C50.16 12.85 49.77 12.18 49.77 11.07L49.77 9.91L50.92 9.91C53.14 9.91 54.45 8.83 54.45 6.55C54.45 4.54 53.14 3.39 50.92 3.39ZM50.60 8.53L49.77 8.51L49.77 4.77L50.60 4.77C51.87 4.77 52.46 5.36 52.46 6.65C52.46 7.85 51.88 8.54 50.60 8.53Z"></path></g><!----><g data-v-423bf9ae="" id="36e36891-6b57-4b45-91bc-5e9887913f78" transform="matrix(1.1297023296356201,0,0,1.1297023296356201,104.030517578125,-5.670040130615234)" stroke="none" fill="white"><path d="M66.5 23.5v-8.334c0-5.523-11.119-10-24.833-10-13.715 0-24.833 4.477-24.833 10v59.667c0 5.521 11.118 10 24.833 10 13.714 0 24.833-4.479 24.833-10v-5.336c10.492 0 19-10.297 19-22.998 0-12.702-8.508-22.999-19-22.999zm-24.833.167c-11.658 0-21.108-3.807-21.108-8.5 0-4.695 9.45-8.5 21.108-8.5s21.109 3.805 21.109 8.5c-.001 4.693-9.452 8.5-21.109 8.5zM66.5 63.281V29.388c7.731 0 14 7.588 14 16.946 0 9.359-6.269 16.947-14 16.947z"></path></g><!----></svg>